<?xml version="1.0" encoding="UTF-8" standalone="no"?>
<!DOCTYPE svg PUBLIC "-//W3C//DTD SVG 1.1//EN" "http://www.w3.org/Graphics/SVG/1.1/DTD/svg11.dtd">
<svg width="100%" height="100%" viewBox="0 0 144 144" version="1.1" xmlns="http://www.w3.org/2000/svg" xmlns:xlink="http://www.w3.org/1999/xlink" xml:space="preserve" xmlns:serif="http://www.serif.com/" style="fill-rule:evenodd;clip-rule:evenodd;stroke-linejoin:round;stroke-miterlimit:2;">
    <g id="Artboard1" transform="matrix(0.798861,0,0,1.05123,19.9757,21.995)">
        <rect x="-25.005" y="-20.923" width="180.257" height="136.983" style="fill:none;"/>
        <g transform="matrix(1.25178,0,0,0.951271,-11.7739,5.22124)">
            <path d="M61.44,21.18C74.32,21.18 84.77,31.63 84.77,44.51C84.77,57.39 74.32,67.84 61.44,67.84C48.56,67.84 38.11,57.4 38.11,44.51C38.11,31.63 48.55,21.18 61.44,21.18ZM105.78,87.97C105.24,88.6 104.5,88.94 103.74,89C102.97,89.06 102.16,88.82 101.51,88.28C100.86,87.74 100.51,86.99 100.45,86.23L100.45,86.22C100.4,85.45 100.63,84.65 101.17,84C106.37,77.93 110.31,71.48 112.93,64.84C115.56,58.19 116.86,51.34 116.79,44.48C116.74,37.69 115.34,30.86 112.57,24.15C109.86,17.61 105.84,11.18 100.46,5.03C99.92,4.4 99.67,3.61 99.73,2.84C99.78,2.07 100.12,1.31 100.74,0.75L100.76,0.73C101.38,0.19 102.17,-0.04 102.94,0.01C103.71,0.06 104.47,0.41 105.03,1.03C110.89,7.75 115.27,14.77 118.22,21.95C121.26,29.34 122.79,36.9 122.86,44.43C122.93,52.06 121.49,59.64 118.62,66.98C115.75,74.28 111.46,81.34 105.79,87.95L105.78,87.97ZM92.11,75.32C91.55,75.94 90.79,76.29 90.01,76.33C89.24,76.38 88.44,76.12 87.82,75.57C87.2,75.01 86.85,74.25 86.81,73.47C86.76,72.7 87.01,71.9 87.57,71.28L87.58,71.27C91.46,66.89 94.38,62.41 96.31,57.9C98.23,53.4 99.17,48.86 99.1,44.32C99.03,39.86 97.97,35.36 95.87,30.89C93.81,26.48 90.74,22.08 86.64,17.74L86.62,17.71C86.05,17.11 85.79,16.34 85.82,15.58C85.85,14.81 86.17,14.04 86.76,13.47L86.8,13.43C87.4,12.86 88.17,12.6 88.93,12.62C89.7,12.64 90.47,12.97 91.05,13.56L91.06,13.57C95.68,18.47 99.13,23.48 101.46,28.55L101.47,28.58C103.85,33.75 105.06,38.99 105.15,44.23C105.24,49.54 104.17,54.82 101.99,60.01C99.82,65.16 96.54,70.23 92.2,75.14C92.19,75.2 92.16,75.26 92.11,75.32ZM35.34,71.32C35.89,71.94 36.14,72.73 36.09,73.49C36.04,74.26 35.7,75.03 35.08,75.59C34.46,76.15 33.67,76.4 32.9,76.36C32.13,76.31 31.36,75.97 30.8,75.35C26.41,70.38 23.09,65.26 20.89,60.05C18.71,54.87 17.63,49.6 17.72,44.3C17.81,39.06 19.03,33.81 21.41,28.62L21.42,28.59C23.75,23.53 27.2,18.52 31.8,13.64L31.83,13.61C32.41,13.02 33.18,12.71 33.95,12.68C34.72,12.66 35.5,12.93 36.1,13.51C36.71,14.09 37.03,14.87 37.05,15.64C37.07,16.41 36.8,17.19 36.22,17.79C32.13,22.15 29.06,26.56 26.99,30.97C24.9,35.44 23.83,39.93 23.75,44.37C23.68,48.9 24.63,53.44 26.55,57.92C28.46,62.4 31.35,66.84 35.15,71.17C35.21,71.19 35.27,71.22 35.31,71.27L35.34,71.32ZM21.69,84L21.72,84.03C22.25,84.67 22.48,85.46 22.43,86.23C22.37,87 22.02,87.74 21.39,88.28L21.34,88.32C20.7,88.85 19.91,89.08 19.14,89.02C18.37,88.96 17.62,88.6 17.08,87.96C11.41,81.34 7.11,74.28 4.25,66.98C1.37,59.65 -0.07,52.07 0,44.44C0.08,36.9 1.6,29.34 4.64,21.95C7.6,14.77 11.97,7.74 17.83,1.04C18.37,0.42 19.12,0.07 19.9,0.02C20.67,-0.03 21.47,0.21 22.11,0.75L22.12,0.76C22.74,1.3 23.09,2.05 23.14,2.83C23.19,3.6 22.95,4.4 22.41,5.04L22.4,5.05C17.03,11.19 13,17.61 10.3,24.15C7.53,30.86 6.13,37.69 6.08,44.48C6.03,51.37 7.34,58.23 9.96,64.89C12.58,71.52 16.51,77.94 21.69,84ZM69.74,45.96C70.93,45.19 70.92,44.34 69.74,43.66L57.47,36.6C56.5,35.99 55.49,36.35 55.52,37.61L55.56,51.87C55.64,53.24 56.43,53.62 57.58,52.98L69.74,45.96ZM61.44,25.92C71.71,25.92 80.03,34.24 80.03,44.51C80.03,54.78 71.71,63.1 61.44,63.1C51.17,63.1 42.85,54.78 42.85,44.51C42.85,34.24 51.17,25.92 61.44,25.92Z" style="fill:white;"/>
        </g>
    </g>
</svg>
